<svg width="30" height="39" viewBox="0 0 30 39" fill="none" xmlns="http://www.w3.org/2000/svg">
<path id="Adicionar imagem" d="M29.25 9.28848V9.75H19.5V0H19.9615C20.4464 2.53497e-06 20.9113 0.192595 21.2542 0.535412L28.7145 7.99576C29.0574 8.33861 29.25 8.80361 29.25 9.28848ZM18.8906 12.1875C17.8852 12.1875 17.0625 11.3648 17.0625 10.3594V0H1.82812C0.818467 0 0 0.818467 0 1.82812V37.1719C0 38.1815 0.818467 39 1.82812 39H27.4219C28.4315 39 29.25 38.1815 29.25 37.1719V12.1875H18.8906ZM8.57276 13.4062C10.5921 13.4062 12.229 15.0432 12.229 17.0625C12.229 19.0818 10.5921 20.7188 8.57276 20.7188C6.55345 20.7188 4.91651 19.0818 4.91651 17.0625C4.91651 15.0432 6.55352 13.4062 8.57276 13.4062ZM24.4165 31.6875H4.91651L4.95346 27.9943L7.96339 24.9844C8.32033 24.6274 8.86214 24.6644 9.21908 25.0213L12.229 28.0312L20.1139 20.1463C20.4709 19.7894 21.0496 19.7894 21.4067 20.1463L24.4165 23.1562V31.6875Z" fill="#FFD100"/>
</svg>
