<?xml version="1.0" encoding="utf-8"?>
<!-- Generator: Adobe Illustrator 27.0.0, SVG Export Plug-In . SVG Version: 6.00 Build 0)  -->
<svg version="1.1" id="Layer_1" xmlns="http://www.w3.org/2000/svg" xmlns:xlink="http://www.w3.org/1999/xlink" x="0px" y="0px"
	 viewBox="0 0 213.9 84" style="enable-background:new 0 0 213.9 84;" xml:space="preserve">
<g>
	<defs>
		<rect id="SVGID_1_" x="-222.69" y="766.88" width="800.25" height="9.75"/>
	</defs>
	<clipPath id="SVGID_00000068672694110408779780000014469511370557652651_">
		<use xlink:href="#SVGID_1_"  style="overflow:visible;"/>
	</clipPath>
	<g style="clip-path:url(#SVGID_00000068672694110408779780000014469511370557652651_);">
		<text transform="matrix(1 0 0 1 -197.179 774.3799)" style="font-family:'Times-Roman'; font-size:7.995px;">h</text>
	</g>
	<g style="clip-path:url(#SVGID_00000068672694110408779780000014469511370557652651_);">
		<text transform="matrix(1 0 0 1 -193.1815 774.3799)" style="font-family:'Times-Roman'; font-size:7.995px;">t</text>
	</g>
	<g style="clip-path:url(#SVGID_00000068672694110408779780000014469511370557652651_);">
		<text transform="matrix(1 0 0 1 -190.9603 774.3799)" style="font-family:'Times-Roman'; font-size:7.995px;">t</text>
	</g>
	<g style="clip-path:url(#SVGID_00000068672694110408779780000014469511370557652651_);">
		<text transform="matrix(1 0 0 1 -188.7391 774.3799)" style="font-family:'Times-Roman'; font-size:7.995px;">p</text>
	</g>
	<g style="clip-path:url(#SVGID_00000068672694110408779780000014469511370557652651_);">
		<text transform="matrix(1 0 0 1 -184.7415 774.3799)" style="font-family:'Times-Roman'; font-size:7.995px;">s</text>
	</g>
	<g style="clip-path:url(#SVGID_00000068672694110408779780000014469511370557652651_);">
		<text transform="matrix(1 0 0 1 -181.6302 774.3799)" style="font-family:'Times-Roman'; font-size:7.995px;">:</text>
	</g>
	<g style="clip-path:url(#SVGID_00000068672694110408779780000014469511370557652651_);">
		<text transform="matrix(1 0 0 1 -179.409 774.3799)" style="font-family:'Times-Roman'; font-size:7.995px;">/</text>
	</g>
	<g style="clip-path:url(#SVGID_00000068672694110408779780000014469511370557652651_);">
		<text transform="matrix(1 0 0 1 -177.1878 774.3799)" style="font-family:'Times-Roman'; font-size:7.995px;">/</text>
	</g>
	<g style="clip-path:url(#SVGID_00000068672694110408779780000014469511370557652651_);">
		<text transform="matrix(1 0 0 1 -174.9666 774.3799)" style="font-family:'Times-Roman'; font-size:7.995px;">w</text>
	</g>
	<g style="clip-path:url(#SVGID_00000068672694110408779780000014469511370557652651_);">
		<text transform="matrix(1 0 0 1 -169.1927 774.3799)" style="font-family:'Times-Roman'; font-size:7.995px;">w</text>
	</g>
	<g style="clip-path:url(#SVGID_00000068672694110408779780000014469511370557652651_);">
		<text transform="matrix(1 0 0 1 -163.4188 774.3799)" style="font-family:'Times-Roman'; font-size:7.995px;">w</text>
	</g>
	<g style="clip-path:url(#SVGID_00000068672694110408779780000014469511370557652651_);">
		<text transform="matrix(1 0 0 1 -158.1644 774.3799)" style="font-family:'Times-Roman'; font-size:7.995px;">.</text>
	</g>
	<g style="clip-path:url(#SVGID_00000068672694110408779780000014469511370557652651_);">
		<text transform="matrix(1 0 0 1 -156.1654 774.3799)" style="font-family:'Times-Roman'; font-size:7.995px;">b</text>
	</g>
	<g style="clip-path:url(#SVGID_00000068672694110408779780000014469511370557652651_);">
		<text transform="matrix(1 0 0 1 -152.1683 774.3799)" style="font-family:'Times-Roman'; font-size:7.995px;">l</text>
	</g>
	<g style="clip-path:url(#SVGID_00000068672694110408779780000014469511370557652651_);">
		<text transform="matrix(1 0 0 1 -149.9471 774.3799)" style="font-family:'Times-Roman'; font-size:7.995px;">i</text>
	</g>
	<g style="clip-path:url(#SVGID_00000068672694110408779780000014469511370557652651_);">
		<text transform="matrix(1 0 0 1 -147.7254 774.3799)" style="font-family:'Times-Roman'; font-size:7.995px;">p</text>
	</g>
	<g style="clip-path:url(#SVGID_00000068672694110408779780000014469511370557652651_);">
		<text transform="matrix(1 0 0 1 -143.7283 774.3799)" style="font-family:'Times-Roman'; font-size:7.995px;">.</text>
	</g>
	<g style="clip-path:url(#SVGID_00000068672694110408779780000014469511370557652651_);">
		<text transform="matrix(1 0 0 1 -141.7298 774.3799)" style="font-family:'Times-Roman'; font-size:7.995px;">p</text>
	</g>
	<g style="clip-path:url(#SVGID_00000068672694110408779780000014469511370557652651_);">
		<text transform="matrix(1 0 0 1 -137.7318 774.3799)" style="font-family:'Times-Roman'; font-size:7.995px;">t</text>
	</g>
</g>
<g>
	<defs>
		<rect id="SVGID_00000167393013337078894140000003466086334703623612_" x="577.56" y="766.88" width="41.91" height="9.75"/>
	</defs>
	<clipPath id="SVGID_00000150812197757591857180000010531744790773323655_">
		<use xlink:href="#SVGID_00000167393013337078894140000003466086334703623612_"  style="overflow:visible;"/>
	</clipPath>
	<g style="clip-path:url(#SVGID_00000150812197757591857180000010531744790773323655_);">
		<text transform="matrix(1 0 0 1 583.4421 774.3799)" style="font-family:'Times-Roman'; font-size:7.995px;">1</text>
	</g>
	<g style="clip-path:url(#SVGID_00000150812197757591857180000010531744790773323655_);">
		<text transform="matrix(1 0 0 1 587.4499 774.3799)" style="font-family:'Times-Roman'; font-size:7.995px;">/</text>
	</g>
	<g style="clip-path:url(#SVGID_00000150812197757591857180000010531744790773323655_);">
		<text transform="matrix(1 0 0 1 589.6765 774.3799)" style="font-family:'Times-Roman'; font-size:7.995px;">7</text>
	</g>
</g>
<g>
	<path d="M42.05,40.76c0-9.05-5.36-13-11.43-13c-4.55,0-8.13,1.79-9.97,4.98l-1.52-0.43c0.76-1.79,1.08-2.82,1.08-4.98v-6.12h-5.91
		v32.01h5.91c0-1.41,0.43-4.44,0.43-4.44c1.84,3.2,5.42,4.98,9.97,4.98C36.69,53.76,42.05,49.81,42.05,40.76z M28.18,48.83
		c-4.12,0-6.2-2-7.23-3.47v-9.21c1.03-1.46,3.12-3.47,7.23-3.47c4.66,0,7.97,2.28,7.97,8.07S32.84,48.83,28.18,48.83z M46.6,28.3
		h5.74v24.92H46.6V28.3z M46.6,21.37h5.74v3.79H46.6V21.37z M57.87,21.21h5.74v32.01h-5.74V21.21z M90.86,48.99
		c-0.76,1.79-1.08,2.82-1.08,4.23h5.9V37.94c0-6.18-5.36-10.19-12.95-10.19c-7.97,0-12.19,3.3-12.52,8.07h5.9
		c0.43-2.17,2.28-3.47,6.72-3.47s6.93,2.17,6.93,5.42v0.27h-9.64c-6.45,0-11.27,2.17-11.27,7.69s5.2,8.02,10.56,8.02
		c4.5,0,8.07-1.79,9.91-5.2L90.86,48.99L90.86,48.99z M80.84,48.88c-3.19,0-6.07-0.92-6.07-3.31c0-2.6,2.66-3.36,6.93-3.36h8.13
		v2.33C89.83,46.66,86.91,48.88,80.84,48.88L80.84,48.88z M133.28,41.03c-0.81,2.55-1.52,4.17-1.52,6.34v0.76h-1.52v-0.76
		c0-2.17-0.87-4.23-1.62-6.34l-4.23-10.57h-6.99l-4.17,10.51c-0.76,2.11-1.62,4.23-1.62,6.39v0.76h-1.57v-0.76
		c0-2.17-0.65-3.85-1.46-6.39l-4.33-12.68h-6.01l8.72,24.92h7.47c0,0,5.69-12.7,5.69-15.02h1.57c0,2.33,5.85,15.02,5.85,15.02h7.48
		l8.61-24.92h-5.85L133.28,41.03L133.28,41.03z M159.23,27.76c-8.78,0-13.87,4.98-13.87,13s5.09,13,13.87,13s12.62-3.63,13.49-8.34
		h-5.91c-0.32,1.95-2.66,3.58-7.58,3.58c-4.55,0-7.31-2.17-7.8-6.39h21.67v-1.84C173.1,32.74,168.01,27.76,159.23,27.76
		L159.23,27.76z M151.43,38.2c0.6-4.12,3.36-5.67,7.8-5.67s7.2,1.55,7.75,5.67H151.43z M194.66,27.76c-4.55,0-8.13,1.79-9.97,4.98
		l-1.52-0.43c0.76-1.79,1.08-2.82,1.08-4.98v-6.12h-5.9v32.01h5.9c0-1.41,0.43-4.44,0.43-4.44c1.84,3.2,5.42,4.98,9.97,4.98
		c6.07,0,11.43-3.96,11.43-13S200.73,27.76,194.66,27.76z M192.23,48.83c-4.12,0-6.2-2-7.23-3.47v-9.21
		c1.03-1.46,3.11-3.47,7.23-3.47c4.66,0,7.96,2.28,7.96,8.07S196.88,48.83,192.23,48.83L192.23,48.83z"/>
</g>
</svg>
