<?xml version="1.0" encoding="utf-8"?>
<!-- Generator: Adobe Illustrator 27.0.0, SVG Export Plug-In . SVG Version: 6.00 Build 0)  -->
<svg version="1.1" id="Layer_1" xmlns="http://www.w3.org/2000/svg" xmlns:xlink="http://www.w3.org/1999/xlink" x="0px" y="0px"
	 viewBox="0 0 134 58" style="enable-background:new 0 0 134 58;" xml:space="preserve">
<style type="text/css">
	.st0{clip-path:url(#SVGID_00000098220932726682895370000005028007780789453993_);fill:#009ED1;}
	.st1{clip-path:url(#SVGID_00000098220932726682895370000005028007780789453993_);fill:#252F38;}
</style>
<g>
	<defs>
		<rect id="SVGID_1_" x="12.84" y="12.6" width="108.75" height="32.25"/>
	</defs>
	<clipPath id="SVGID_00000026131825414617492010000002605014782221787290_">
		<use xlink:href="#SVGID_1_"  style="overflow:visible;"/>
	</clipPath>
	<polygon style="clip-path:url(#SVGID_00000026131825414617492010000002605014782221787290_);fill:#009ED1;" points="117.22,40.5 
		117.22,44.85 108.51,44.85 108.51,36.15 112.86,36.15 112.86,40.5 	"/>
	
		<rect x="117.22" y="31.8" style="clip-path:url(#SVGID_00000026131825414617492010000002605014782221787290_);fill:#009ED1;" width="4.36" height="4.35"/>
	<path style="clip-path:url(#SVGID_00000026131825414617492010000002605014782221787290_);fill:#252F38;" d="M35.32,39.17H18.54
		v-7.5h16.78V39.17z M18.54,18.28h11.1V26h-11.1V18.28z M35.32,26V12.6H12.86v32.25H41V26H35.32z"/>
	<polygon style="clip-path:url(#SVGID_00000026131825414617492010000002605014782221787290_);fill:#252F38;" points="47.57,12.6 
		53.19,12.6 53.19,39.18 67.77,39.18 67.77,44.85 47.57,44.85 	"/>
	
		<rect x="73.66" y="12.6" style="clip-path:url(#SVGID_00000026131825414617492010000002605014782221787290_);fill:#252F38;" width="5.68" height="32.25"/>
	<path style="clip-path:url(#SVGID_00000026131825414617492010000002605014782221787290_);fill:#252F38;" d="M102.83,26.13H91.7
		v-7.84h11.13V26.13z M86.04,12.6v32.25h5.65V31.79h16.8V12.6H86.04z"/>
</g>
<g>
	<defs>
		<rect id="SVGID_00000075157745562390274420000017637964051804297373_" x="-245" y="766.88" width="800.25" height="9.75"/>
	</defs>
	<clipPath id="SVGID_00000170236850965494924420000017548451593875688863_">
		<use xlink:href="#SVGID_00000075157745562390274420000017637964051804297373_"  style="overflow:visible;"/>
	</clipPath>
	<g style="clip-path:url(#SVGID_00000170236850965494924420000017548451593875688863_);">
		<text transform="matrix(1 0 0 1 -219.4883 774.3799)" style="font-family:'Times-Roman'; font-size:7.995px;">h</text>
	</g>
	<g style="clip-path:url(#SVGID_00000170236850965494924420000017548451593875688863_);">
		<text transform="matrix(1 0 0 1 -215.4907 774.3799)" style="font-family:'Times-Roman'; font-size:7.995px;">t</text>
	</g>
	<g style="clip-path:url(#SVGID_00000170236850965494924420000017548451593875688863_);">
		<text transform="matrix(1 0 0 1 -213.2695 774.3799)" style="font-family:'Times-Roman'; font-size:7.995px;">t</text>
	</g>
	<g style="clip-path:url(#SVGID_00000170236850965494924420000017548451593875688863_);">
		<text transform="matrix(1 0 0 1 -211.0483 774.3799)" style="font-family:'Times-Roman'; font-size:7.995px;">p</text>
	</g>
	<g style="clip-path:url(#SVGID_00000170236850965494924420000017548451593875688863_);">
		<text transform="matrix(1 0 0 1 -207.0508 774.3799)" style="font-family:'Times-Roman'; font-size:7.995px;">s</text>
	</g>
	<g style="clip-path:url(#SVGID_00000170236850965494924420000017548451593875688863_);">
		<text transform="matrix(1 0 0 1 -203.9395 774.3799)" style="font-family:'Times-Roman'; font-size:7.995px;">:</text>
	</g>
	<g style="clip-path:url(#SVGID_00000170236850965494924420000017548451593875688863_);">
		<text transform="matrix(1 0 0 1 -201.7183 774.3799)" style="font-family:'Times-Roman'; font-size:7.995px;">/</text>
	</g>
	<g style="clip-path:url(#SVGID_00000170236850965494924420000017548451593875688863_);">
		<text transform="matrix(1 0 0 1 -199.4971 774.3799)" style="font-family:'Times-Roman'; font-size:7.995px;">/</text>
	</g>
	<g style="clip-path:url(#SVGID_00000170236850965494924420000017548451593875688863_);">
		<text transform="matrix(1 0 0 1 -197.2759 774.3799)" style="font-family:'Times-Roman'; font-size:7.995px;">w</text>
	</g>
	<g style="clip-path:url(#SVGID_00000170236850965494924420000017548451593875688863_);">
		<text transform="matrix(1 0 0 1 -191.502 774.3799)" style="font-family:'Times-Roman'; font-size:7.995px;">w</text>
	</g>
	<g style="clip-path:url(#SVGID_00000170236850965494924420000017548451593875688863_);">
		<text transform="matrix(1 0 0 1 -185.728 774.3799)" style="font-family:'Times-Roman'; font-size:7.995px;">w</text>
	</g>
	<g style="clip-path:url(#SVGID_00000170236850965494924420000017548451593875688863_);">
		<text transform="matrix(1 0 0 1 -180.4736 774.3799)" style="font-family:'Times-Roman'; font-size:7.995px;">.</text>
	</g>
	<g style="clip-path:url(#SVGID_00000170236850965494924420000017548451593875688863_);">
		<text transform="matrix(1 0 0 1 -178.4746 774.3799)" style="font-family:'Times-Roman'; font-size:7.995px;">b</text>
	</g>
	<g style="clip-path:url(#SVGID_00000170236850965494924420000017548451593875688863_);">
		<text transform="matrix(1 0 0 1 -174.4775 774.3799)" style="font-family:'Times-Roman'; font-size:7.995px;">l</text>
	</g>
	<g style="clip-path:url(#SVGID_00000170236850965494924420000017548451593875688863_);">
		<text transform="matrix(1 0 0 1 -172.2563 774.3799)" style="font-family:'Times-Roman'; font-size:7.995px;">i</text>
	</g>
	<g style="clip-path:url(#SVGID_00000170236850965494924420000017548451593875688863_);">
		<text transform="matrix(1 0 0 1 -170.0347 774.3799)" style="font-family:'Times-Roman'; font-size:7.995px;">p</text>
	</g>
	<g style="clip-path:url(#SVGID_00000170236850965494924420000017548451593875688863_);">
		<text transform="matrix(1 0 0 1 -166.0376 774.3799)" style="font-family:'Times-Roman'; font-size:7.995px;">.</text>
	</g>
	<g style="clip-path:url(#SVGID_00000170236850965494924420000017548451593875688863_);">
		<text transform="matrix(1 0 0 1 -164.0391 774.3799)" style="font-family:'Times-Roman'; font-size:7.995px;">p</text>
	</g>
	<g style="clip-path:url(#SVGID_00000170236850965494924420000017548451593875688863_);">
		<text transform="matrix(1 0 0 1 -160.041 774.3799)" style="font-family:'Times-Roman'; font-size:7.995px;">t</text>
	</g>
</g>
<g>
	<defs>
		<rect id="SVGID_00000126294364754780785300000010264526227464470958_" x="555.25" y="766.88" width="41.91" height="9.75"/>
	</defs>
	<clipPath id="SVGID_00000178900103091949607420000001132916573439772343_">
		<use xlink:href="#SVGID_00000126294364754780785300000010264526227464470958_"  style="overflow:visible;"/>
	</clipPath>
	<g style="clip-path:url(#SVGID_00000178900103091949607420000001132916573439772343_);">
		<text transform="matrix(1 0 0 1 561.1328 774.3799)" style="font-family:'Times-Roman'; font-size:7.995px;">1</text>
	</g>
	<g style="clip-path:url(#SVGID_00000178900103091949607420000001132916573439772343_);">
		<text transform="matrix(1 0 0 1 565.1406 774.3799)" style="font-family:'Times-Roman'; font-size:7.995px;">/</text>
	</g>
	<g style="clip-path:url(#SVGID_00000178900103091949607420000001132916573439772343_);">
		<text transform="matrix(1 0 0 1 567.3672 774.3799)" style="font-family:'Times-Roman'; font-size:7.995px;">7</text>
	</g>
</g>
</svg>
