<?xml version="1.0" encoding="utf-8"?>
<!-- Generator: Adobe Illustrator 27.0.0, SVG Export Plug-In . SVG Version: 6.00 Build 0)  -->
<svg version="1.1" id="Layer_1" xmlns="http://www.w3.org/2000/svg" xmlns:xlink="http://www.w3.org/1999/xlink" x="0px" y="0px"
	 viewBox="0 0 213.9 84" style="enable-background:new 0 0 213.9 84;" xml:space="preserve">
<style type="text/css">
	.st0{clip-path:url(#SVGID_00000171694609518737801000000017976476149068544680_);fill:#2B4D9C;}
	.st1{clip-path:url(#SVGID_00000171694609518737801000000017976476149068544680_);fill:#2A4D9C;}
</style>
<g>
	<defs>
		<rect id="SVGID_1_" x="-222.69" y="766.88" width="800.25" height="9.75"/>
	</defs>
	<clipPath id="SVGID_00000172429315031384230070000011958073384846822065_">
		<use xlink:href="#SVGID_1_"  style="overflow:visible;"/>
	</clipPath>
	<g style="clip-path:url(#SVGID_00000172429315031384230070000011958073384846822065_);">
		<text transform="matrix(1 0 0 1 -197.179 774.3799)" style="font-family:'Times-Roman'; font-size:7.995px;">h</text>
	</g>
	<g style="clip-path:url(#SVGID_00000172429315031384230070000011958073384846822065_);">
		<text transform="matrix(1 0 0 1 -193.1815 774.3799)" style="font-family:'Times-Roman'; font-size:7.995px;">t</text>
	</g>
	<g style="clip-path:url(#SVGID_00000172429315031384230070000011958073384846822065_);">
		<text transform="matrix(1 0 0 1 -190.9603 774.3799)" style="font-family:'Times-Roman'; font-size:7.995px;">t</text>
	</g>
	<g style="clip-path:url(#SVGID_00000172429315031384230070000011958073384846822065_);">
		<text transform="matrix(1 0 0 1 -188.7391 774.3799)" style="font-family:'Times-Roman'; font-size:7.995px;">p</text>
	</g>
	<g style="clip-path:url(#SVGID_00000172429315031384230070000011958073384846822065_);">
		<text transform="matrix(1 0 0 1 -184.7415 774.3799)" style="font-family:'Times-Roman'; font-size:7.995px;">s</text>
	</g>
	<g style="clip-path:url(#SVGID_00000172429315031384230070000011958073384846822065_);">
		<text transform="matrix(1 0 0 1 -181.6302 774.3799)" style="font-family:'Times-Roman'; font-size:7.995px;">:</text>
	</g>
	<g style="clip-path:url(#SVGID_00000172429315031384230070000011958073384846822065_);">
		<text transform="matrix(1 0 0 1 -179.409 774.3799)" style="font-family:'Times-Roman'; font-size:7.995px;">/</text>
	</g>
	<g style="clip-path:url(#SVGID_00000172429315031384230070000011958073384846822065_);">
		<text transform="matrix(1 0 0 1 -177.1878 774.3799)" style="font-family:'Times-Roman'; font-size:7.995px;">/</text>
	</g>
	<g style="clip-path:url(#SVGID_00000172429315031384230070000011958073384846822065_);">
		<text transform="matrix(1 0 0 1 -174.9666 774.3799)" style="font-family:'Times-Roman'; font-size:7.995px;">w</text>
	</g>
	<g style="clip-path:url(#SVGID_00000172429315031384230070000011958073384846822065_);">
		<text transform="matrix(1 0 0 1 -169.1927 774.3799)" style="font-family:'Times-Roman'; font-size:7.995px;">w</text>
	</g>
	<g style="clip-path:url(#SVGID_00000172429315031384230070000011958073384846822065_);">
		<text transform="matrix(1 0 0 1 -163.4188 774.3799)" style="font-family:'Times-Roman'; font-size:7.995px;">w</text>
	</g>
	<g style="clip-path:url(#SVGID_00000172429315031384230070000011958073384846822065_);">
		<text transform="matrix(1 0 0 1 -158.1644 774.3799)" style="font-family:'Times-Roman'; font-size:7.995px;">.</text>
	</g>
	<g style="clip-path:url(#SVGID_00000172429315031384230070000011958073384846822065_);">
		<text transform="matrix(1 0 0 1 -156.1654 774.3799)" style="font-family:'Times-Roman'; font-size:7.995px;">b</text>
	</g>
	<g style="clip-path:url(#SVGID_00000172429315031384230070000011958073384846822065_);">
		<text transform="matrix(1 0 0 1 -152.1683 774.3799)" style="font-family:'Times-Roman'; font-size:7.995px;">l</text>
	</g>
	<g style="clip-path:url(#SVGID_00000172429315031384230070000011958073384846822065_);">
		<text transform="matrix(1 0 0 1 -149.9471 774.3799)" style="font-family:'Times-Roman'; font-size:7.995px;">i</text>
	</g>
	<g style="clip-path:url(#SVGID_00000172429315031384230070000011958073384846822065_);">
		<text transform="matrix(1 0 0 1 -147.7254 774.3799)" style="font-family:'Times-Roman'; font-size:7.995px;">p</text>
	</g>
	<g style="clip-path:url(#SVGID_00000172429315031384230070000011958073384846822065_);">
		<text transform="matrix(1 0 0 1 -143.7283 774.3799)" style="font-family:'Times-Roman'; font-size:7.995px;">.</text>
	</g>
	<g style="clip-path:url(#SVGID_00000172429315031384230070000011958073384846822065_);">
		<text transform="matrix(1 0 0 1 -141.7298 774.3799)" style="font-family:'Times-Roman'; font-size:7.995px;">p</text>
	</g>
	<g style="clip-path:url(#SVGID_00000172429315031384230070000011958073384846822065_);">
		<text transform="matrix(1 0 0 1 -137.7318 774.3799)" style="font-family:'Times-Roman'; font-size:7.995px;">t</text>
	</g>
</g>
<g>
	<defs>
		<rect id="SVGID_00000040565687211079044410000016699586608235558548_" x="577.56" y="766.88" width="41.91" height="9.75"/>
	</defs>
	<clipPath id="SVGID_00000108273779990286035860000018124979407782323586_">
		<use xlink:href="#SVGID_00000040565687211079044410000016699586608235558548_"  style="overflow:visible;"/>
	</clipPath>
	<g style="clip-path:url(#SVGID_00000108273779990286035860000018124979407782323586_);">
		<text transform="matrix(1 0 0 1 583.4421 774.3799)" style="font-family:'Times-Roman'; font-size:7.995px;">1</text>
	</g>
	<g style="clip-path:url(#SVGID_00000108273779990286035860000018124979407782323586_);">
		<text transform="matrix(1 0 0 1 587.4499 774.3799)" style="font-family:'Times-Roman'; font-size:7.995px;">/</text>
	</g>
	<g style="clip-path:url(#SVGID_00000108273779990286035860000018124979407782323586_);">
		<text transform="matrix(1 0 0 1 589.6765 774.3799)" style="font-family:'Times-Roman'; font-size:7.995px;">7</text>
	</g>
</g>
<g>
	<defs>
		<rect id="SVGID_00000067920086514151584150000008488462382345628041_" x="5.77" y="13.69" width="200.29" height="54.62"/>
	</defs>
	<clipPath id="SVGID_00000000200785005727906090000004909582809481447044_">
		<use xlink:href="#SVGID_00000067920086514151584150000008488462382345628041_"  style="overflow:visible;"/>
	</clipPath>
	<path style="clip-path:url(#SVGID_00000000200785005727906090000004909582809481447044_);fill:#2B4D9C;" d="M203.95,36.04
		c-1,0-1.99,0.37-2.74,0.99c-0.75,0.62-1.37,1.61-1.87,2.86l-0.37-3.48h-3.73v17.5h4.23v-9.19c0.37-1.49,0.87-2.73,1.37-3.48
		c0.62-0.74,1.37-1.12,2.49-1.12c0.5,0,1,0.12,1.62,0.25l0.75-4.1C205.19,36.04,204.57,36.04,203.95,36.04L203.95,36.04z
		 M187.15,43.86h-6.84c0.12-1.74,0.5-2.86,1-3.6c0.62-0.74,1.37-1.12,2.49-1.12c2.24,0,3.36,1.49,3.36,4.59V43.86z M183.67,36.04
		c-1.62,0-2.99,0.37-4.23,1.24c-1.12,0.74-2.11,1.86-2.74,3.35c-0.62,1.49-0.87,2.98-0.87,4.84c0,2.86,0.75,5.09,2.11,6.7
		c1.49,1.61,3.48,2.48,6.22,2.48c2.36,0,4.6-0.74,6.47-2.36l-1.74-2.36c-0.75,0.5-1.49,0.87-2.24,1.12
		c-0.75,0.25-1.37,0.37-2.24,0.37c-1.24,0-2.24-0.37-2.99-1.12c-0.75-0.74-1.24-1.99-1.37-3.6h11.07c0.12-0.87,0.12-1.49,0.12-1.74
		c0-2.73-0.62-4.97-1.99-6.46C188.02,36.78,186.16,36.04,183.67,36.04z M169.74,27.59c-0.75,0-1.37,0.25-1.87,0.74
		c-0.5,0.5-0.75,1.12-0.75,1.86s0.25,1.37,0.75,1.86c0.5,0.5,1.12,0.74,1.87,0.74c0.75,0,1.49-0.25,1.99-0.74
		c0.5-0.5,0.75-1.12,0.75-1.86s-0.25-1.37-0.75-1.86C171.23,27.84,170.48,27.59,169.74,27.59z M167.62,36.53h4.23v17.5h-4.23V36.53z
		 M155.31,51.31c-1.37,0-2.36-0.62-3.23-1.86V41.5c0.5-0.74,1-1.37,1.62-1.74s1.24-0.62,1.99-0.62c1.12,0,1.99,0.5,2.49,1.37
		c0.62,0.99,0.87,2.48,0.87,4.59C159.04,49.19,157.79,51.31,155.31,51.31L155.31,51.31z M156.92,36.04c-0.87,0-1.87,0.25-2.74,0.62
		c-0.87,0.5-1.62,1.12-2.36,1.99l-0.25-2.11h-3.73v24.7l4.23-0.5v-8.19c1.12,1.24,2.61,1.86,4.35,1.86c1.49,0,2.74-0.37,3.73-1.24
		c1-0.87,1.87-1.86,2.36-3.35c0.5-1.37,0.87-2.98,0.87-4.84c0-2.86-0.5-5.21-1.62-6.83C160.78,36.78,159.16,36.04,156.92,36.04
		L156.92,36.04z M135.53,51.31c-1.37,0-2.36-0.62-3.23-1.86V41.5c0.5-0.74,1-1.37,1.62-1.74c0.62-0.37,1.24-0.62,1.99-0.62
		c1.12,0,1.99,0.5,2.49,1.37c0.62,0.99,0.87,2.48,0.87,4.59C139.26,49.19,138.01,51.31,135.53,51.31L135.53,51.31z M137.14,36.04
		c-0.87,0-1.87,0.25-2.74,0.62c-0.87,0.5-1.62,1.12-2.36,1.99l-0.25-2.11h-3.73v24.7l4.23-0.5v-8.19c1.12,1.24,2.61,1.86,4.35,1.86
		c1.49,0,2.74-0.37,3.73-1.24c1-0.87,1.87-1.86,2.36-3.35c0.5-1.37,0.87-2.98,0.87-4.84c0-2.86-0.5-5.21-1.62-6.83
		C141,36.78,139.38,36.04,137.14,36.04L137.14,36.04z M123.33,51.06c-0.37,0-0.62-0.12-0.75-0.37c-0.12-0.25-0.25-0.5-0.25-0.99
		V28.96l-4.23,0.5v20.61c0,1.49,0.37,2.61,1.12,3.35c0.75,0.74,1.74,1.12,3.11,1.12c1.12,0,2.11-0.25,2.99-0.62l-1-2.98
		C123.96,51.06,123.71,51.06,123.33,51.06L123.33,51.06z M110.15,43.86h-6.84c0.12-1.74,0.5-2.86,1-3.6
		c0.5-0.74,1.37-1.12,2.49-1.12c2.24,0,3.36,1.49,3.36,4.59V43.86z M106.66,36.04c-1.62,0-2.99,0.37-4.23,1.24
		c-1.12,0.74-2.11,1.86-2.74,3.35c-0.62,1.49-0.87,2.98-0.87,4.84c0,2.86,0.75,5.09,2.11,6.7c1.37,1.61,3.48,2.48,6.22,2.48
		c2.36,0,4.6-0.74,6.47-2.36l-1.74-2.61c-0.75,0.5-1.49,0.87-2.24,1.12c-0.75,0.25-1.37,0.37-2.24,0.37c-1.24,0-2.24-0.37-2.99-1.12
		c-0.75-0.74-1.24-1.99-1.37-3.6h11.07c0.12-0.87,0.12-1.49,0.12-1.74c0-2.73-0.62-4.97-1.99-6.46
		C111.02,36.78,109.03,36.04,106.66,36.04z M90.37,40.26h-8.21v-9.19H77.8v22.97h4.35v-10.3h8.21v10.3h4.35V31.07h-4.35V40.26z"/>
	<path style="clip-path:url(#SVGID_00000000200785005727906090000004909582809481447044_);fill:#2B4D9C;" d="M22.57,37.65
		c-1.24,0-2.24-0.99-2.24-2.23c0-1.24,1-2.23,2.24-2.23c1.24,0,2.24,0.99,2.24,2.23C24.81,36.66,23.81,37.65,22.57,37.65z
		 M22.57,31.07c-2.49,0-4.35,1.99-4.35,4.34c0,2.36,1.99,4.34,4.35,4.34c2.36,0,4.35-1.99,4.35-4.34
		C26.92,33.06,25.06,31.07,22.57,31.07z M42.47,33.68c-2.61,0-5.47,0.74-5.47,2.86c0,0.62,0.5,1.12,1.12,1.12
		c0.62,0,1.12-0.5,1.12-1.12c0.12-0.25,1.37-0.74,3.36-0.74c1.99,0,3.11,0.5,3.36,0.74c0,0.62,0.5,0.99,1.12,0.99
		c0.62,0,1.12-0.5,1.12-1.12C48.07,34.42,45.21,33.68,42.47,33.68L42.47,33.68z"/>
	<path style="clip-path:url(#SVGID_00000000200785005727906090000004909582809481447044_);fill:#2A4D9C;" d="M53.92,65.21
		l-10.2-2.61l-0.37,0.12c-3.36,1.61-6.97,2.48-10.7,2.48C19.09,65.33,8.26,54.41,8.26,41s10.82-24.33,24.26-24.33
		C45.96,16.67,56.9,27.59,56.9,41c0,6.33-2.49,12.41-6.84,16.88l-0.75,0.74l4.85,5.96c0.25,0.25,0.37,0.5,0.5,0.62H53.92z
		 M52.3,58.75c4.48-4.84,6.84-11.17,6.84-17.75c0-14.65-11.94-26.44-26.5-26.44C17.97,14.56,6.02,26.35,6.02,41
		s11.94,26.44,26.5,26.44c3.98,0,7.71-0.87,11.32-2.61l9.45,2.36c0.12,0,0.75,0.25,1.49,0.25c1.37,0,1.87-0.62,2.11-1.12
		c0.5-1.12-0.37-2.36-1-3.23L52.3,58.75L52.3,58.75z"/>
	<path style="clip-path:url(#SVGID_00000000200785005727906090000004909582809481447044_);fill:#2B4D9C;" d="M49.07,45.35
		c-0.62-0.12-1.12,0.25-1.24,0.87c-1.37,7.2-7.84,12.41-15.18,12.41c-7.34,0-13.68-5.21-15.18-12.41c-0.12-0.62-0.75-0.99-1.24-0.87
		c-0.62,0.12-1,0.74-0.87,1.24c1.49,8.32,8.83,14.28,17.17,14.28c8.33,0,15.67-5.96,17.29-14.28
		C49.94,46.09,49.56,45.47,49.07,45.35L49.07,45.35z"/>
</g>
</svg>
