<?xml version="1.0" encoding="utf-8"?>
<!-- Generator: Adobe Illustrator 27.0.0, SVG Export Plug-In . SVG Version: 6.00 Build 0)  -->
<svg version="1.1" id="Layer_1" xmlns="http://www.w3.org/2000/svg" xmlns:xlink="http://www.w3.org/1999/xlink" x="0px" y="0px"
	 viewBox="0 0 196 196" style="enable-background:new 0 0 196 196;" xml:space="preserve">
<style type="text/css">
	.st0{clip-path:url(#SVGID_00000025404922697617006240000011617484715619925897_);}
	.st1{clip-path:url(#SVGID_00000013178800296334266250000014109026598105255558_);}
	.st2{fill-rule:evenodd;clip-rule:evenodd;fill:#FF5E01;}
</style>
<g>
	<defs>
		<rect id="SVGID_1_" y="0" width="196" height="196"/>
	</defs>
	<clipPath id="SVGID_00000152266243047896339620000002929137929244891833_">
		<use xlink:href="#SVGID_1_"  style="overflow:visible;"/>
	</clipPath>
	<g style="clip-path:url(#SVGID_00000152266243047896339620000002929137929244891833_);">
		<g>
			<defs>
				<rect id="SVGID_00000003065727315133599570000009296792771776254118_" x="11" y="11" width="174.22" height="174.22"/>
			</defs>
			<clipPath id="SVGID_00000088100900482943177190000014337469207417886598_">
				<use xlink:href="#SVGID_00000003065727315133599570000009296792771776254118_"  style="overflow:visible;"/>
			</clipPath>
			<g style="clip-path:url(#SVGID_00000088100900482943177190000014337469207417886598_);">
				<path class="st2" d="M110.51,57.62c4.4-4.44,4.4-11.63,0-16.07c-4.4-4.44-11.54-4.44-15.94,0c-4.4,4.44-4.4,11.63,0,16.07
					C98.98,62.05,106.11,62.05,110.51,57.62z M45.27,57.62c4.4-4.44,4.4-11.63,0-16.07c-4.4-4.44-11.54-4.44-15.94,0
					c-4.4,4.44-4.4,11.63,0,16.07C33.74,62.06,40.87,62.06,45.27,57.62z M110.12,90.58L128,90.27c-0.3,2.86-1.14,5.56-2.41,7.99
					c-3.75,7.17-11.15,11.63-19.19,11.77l-4.99,0.09c-7.84,0.14-16.51-2.1-25.87-6.66l0.05-0.03l0.03-0.02h0
					c0.03-0.02,0.07-0.04,0.1-0.06c0.02-0.01,0.04-0.02,0.05-0.04c12.49-8.26,24.03-12.54,34.31-12.73H110.12z M127.88,84.51
					c-1.63-10.89-11.05-19.15-22.28-18.96l-7.04,0.12c-10.6,0.6-21.39,4.86-32.11,12.67C54.31,87.19,41.95,91.79,29.72,92
					c-0.26,0-0.51,0.01-0.76,0.01h0h0l-17.88,0.32c0.4,2.85,1.33,5.51,2.69,7.9c3.99,7.03,11.55,11.23,19.58,11.09l5-0.09
					c10.25-0.18,21.78-4.46,34.28-12.73C86.04,89.62,98.62,85.02,110,84.82L127.88,84.51L127.88,84.51z M28.88,86.25L11,86.56
					c1.26-10.94,10.38-19.53,21.6-19.73l7.01-0.12c7.9,0.17,15.97,2.35,24.11,6.52c-0.07,0.05-0.15,0.11-0.22,0.16
					c-0.13,0.09-0.26,0.19-0.39,0.28c-11.42,8.32-22.93,12.56-34.19,12.58H28.9H28.88z"/>
			</g>
		</g>
	</g>
</g>
</svg>
