<svg width="130" height="130" viewBox="0 0 130 130" fill="none" xmlns="http://www.w3.org/2000/svg">
<circle cx="65" cy="65" r="65" fill="url(#paint0_linear_631_806)"/>
<circle cx="65" cy="65" r="50" fill="#333533"/>
<path d="M65 65C69.2435 65 73.3131 63.525 76.3137 60.8995C79.3143 58.274 81 54.713 81 51C81 47.287 79.3143 43.726 76.3137 41.1005C73.3131 38.475 69.2435 37 65 37C60.7565 37 56.6869 38.475 53.6863 41.1005C50.6857 43.726 49 47.287 49 51C49 54.713 50.6857 58.274 53.6863 60.8995C56.6869 63.525 60.7565 65 65 65ZM59.2875 70.25C46.975 70.25 37 78.9781 37 89.7516C37 91.5453 38.6625 93 40.7125 93H89.2875C91.3375 93 93 91.5453 93 89.7516C93 78.9781 83.025 70.25 70.7125 70.25H59.2875Z" fill="#FAF4F4"/>
<defs>
<linearGradient id="paint0_linear_631_806" x1="65" y1="0" x2="65" y2="130" gradientUnits="userSpaceOnUse">
<stop stop-color="#D6D6D6"/>
<stop offset="1" stop-color="#707070"/>
</linearGradient>
</defs>
</svg>
