<?xml version="1.0" encoding="utf-8"?>
<!-- Generator: Adobe Illustrator 27.0.0, SVG Export Plug-In . SVG Version: 6.00 Build 0)  -->
<svg version="1.1" id="Layer_1" xmlns="http://www.w3.org/2000/svg" xmlns:xlink="http://www.w3.org/1999/xlink" x="0px" y="0px"
	 viewBox="0 0 194.07 84" style="enable-background:new 0 0 194.07 84;" xml:space="preserve">
<style type="text/css">
	.st0{clip-path:url(#SVGID_00000165202749324724870780000001237424097839226248_);fill:#006AFF;}
</style>
<g>
	<defs>
		<rect id="SVGID_1_" x="-245" y="766.88" width="800.25" height="9.75"/>
	</defs>
	<clipPath id="SVGID_00000009591216209218120810000017429690012760053146_">
		<use xlink:href="#SVGID_1_"  style="overflow:visible;"/>
	</clipPath>
	<g style="clip-path:url(#SVGID_00000009591216209218120810000017429690012760053146_);">
		<text transform="matrix(1 0 0 1 -219.4883 774.3799)" style="font-family:'Times-Roman'; font-size:7.995px;">h</text>
	</g>
	<g style="clip-path:url(#SVGID_00000009591216209218120810000017429690012760053146_);">
		<text transform="matrix(1 0 0 1 -215.4907 774.3799)" style="font-family:'Times-Roman'; font-size:7.995px;">t</text>
	</g>
	<g style="clip-path:url(#SVGID_00000009591216209218120810000017429690012760053146_);">
		<text transform="matrix(1 0 0 1 -213.2695 774.3799)" style="font-family:'Times-Roman'; font-size:7.995px;">t</text>
	</g>
	<g style="clip-path:url(#SVGID_00000009591216209218120810000017429690012760053146_);">
		<text transform="matrix(1 0 0 1 -211.0483 774.3799)" style="font-family:'Times-Roman'; font-size:7.995px;">p</text>
	</g>
	<g style="clip-path:url(#SVGID_00000009591216209218120810000017429690012760053146_);">
		<text transform="matrix(1 0 0 1 -207.0508 774.3799)" style="font-family:'Times-Roman'; font-size:7.995px;">s</text>
	</g>
	<g style="clip-path:url(#SVGID_00000009591216209218120810000017429690012760053146_);">
		<text transform="matrix(1 0 0 1 -203.9395 774.3799)" style="font-family:'Times-Roman'; font-size:7.995px;">:</text>
	</g>
	<g style="clip-path:url(#SVGID_00000009591216209218120810000017429690012760053146_);">
		<text transform="matrix(1 0 0 1 -201.7183 774.3799)" style="font-family:'Times-Roman'; font-size:7.995px;">/</text>
	</g>
	<g style="clip-path:url(#SVGID_00000009591216209218120810000017429690012760053146_);">
		<text transform="matrix(1 0 0 1 -199.4971 774.3799)" style="font-family:'Times-Roman'; font-size:7.995px;">/</text>
	</g>
	<g style="clip-path:url(#SVGID_00000009591216209218120810000017429690012760053146_);">
		<text transform="matrix(1 0 0 1 -197.2759 774.3799)" style="font-family:'Times-Roman'; font-size:7.995px;">w</text>
	</g>
	<g style="clip-path:url(#SVGID_00000009591216209218120810000017429690012760053146_);">
		<text transform="matrix(1 0 0 1 -191.502 774.3799)" style="font-family:'Times-Roman'; font-size:7.995px;">w</text>
	</g>
	<g style="clip-path:url(#SVGID_00000009591216209218120810000017429690012760053146_);">
		<text transform="matrix(1 0 0 1 -185.728 774.3799)" style="font-family:'Times-Roman'; font-size:7.995px;">w</text>
	</g>
	<g style="clip-path:url(#SVGID_00000009591216209218120810000017429690012760053146_);">
		<text transform="matrix(1 0 0 1 -180.4736 774.3799)" style="font-family:'Times-Roman'; font-size:7.995px;">.</text>
	</g>
	<g style="clip-path:url(#SVGID_00000009591216209218120810000017429690012760053146_);">
		<text transform="matrix(1 0 0 1 -178.4746 774.3799)" style="font-family:'Times-Roman'; font-size:7.995px;">b</text>
	</g>
	<g style="clip-path:url(#SVGID_00000009591216209218120810000017429690012760053146_);">
		<text transform="matrix(1 0 0 1 -174.4775 774.3799)" style="font-family:'Times-Roman'; font-size:7.995px;">l</text>
	</g>
	<g style="clip-path:url(#SVGID_00000009591216209218120810000017429690012760053146_);">
		<text transform="matrix(1 0 0 1 -172.2563 774.3799)" style="font-family:'Times-Roman'; font-size:7.995px;">i</text>
	</g>
	<g style="clip-path:url(#SVGID_00000009591216209218120810000017429690012760053146_);">
		<text transform="matrix(1 0 0 1 -170.0347 774.3799)" style="font-family:'Times-Roman'; font-size:7.995px;">p</text>
	</g>
	<g style="clip-path:url(#SVGID_00000009591216209218120810000017429690012760053146_);">
		<text transform="matrix(1 0 0 1 -166.0376 774.3799)" style="font-family:'Times-Roman'; font-size:7.995px;">.</text>
	</g>
	<g style="clip-path:url(#SVGID_00000009591216209218120810000017429690012760053146_);">
		<text transform="matrix(1 0 0 1 -164.0391 774.3799)" style="font-family:'Times-Roman'; font-size:7.995px;">p</text>
	</g>
	<g style="clip-path:url(#SVGID_00000009591216209218120810000017429690012760053146_);">
		<text transform="matrix(1 0 0 1 -160.041 774.3799)" style="font-family:'Times-Roman'; font-size:7.995px;">t</text>
	</g>
</g>
<g>
	<defs>
		<rect id="SVGID_00000090274861740241984420000002896256193684622227_" x="555.25" y="766.88" width="41.91" height="9.75"/>
	</defs>
	<clipPath id="SVGID_00000000221260209386090990000009225441711061143449_">
		<use xlink:href="#SVGID_00000090274861740241984420000002896256193684622227_"  style="overflow:visible;"/>
	</clipPath>
	<g style="clip-path:url(#SVGID_00000000221260209386090990000009225441711061143449_);">
		<text transform="matrix(1 0 0 1 561.1328 774.3799)" style="font-family:'Times-Roman'; font-size:7.995px;">1</text>
	</g>
	<g style="clip-path:url(#SVGID_00000000221260209386090990000009225441711061143449_);">
		<text transform="matrix(1 0 0 1 565.1406 774.3799)" style="font-family:'Times-Roman'; font-size:7.995px;">/</text>
	</g>
	<g style="clip-path:url(#SVGID_00000000221260209386090990000009225441711061143449_);">
		<text transform="matrix(1 0 0 1 567.3672 774.3799)" style="font-family:'Times-Roman'; font-size:7.995px;">7</text>
	</g>
</g>
<g>
	<defs>
		<rect id="SVGID_00000182493223927454907730000010228719575648083082_" x="30.55" y="25.55" width="122.53" height="35.69"/>
	</defs>
	<clipPath id="SVGID_00000047031039967865834180000005859794463654668453_">
		<use xlink:href="#SVGID_00000182493223927454907730000010228719575648083082_"  style="overflow:visible;"/>
	</clipPath>
	<path style="clip-path:url(#SVGID_00000047031039967865834180000005859794463654668453_);fill:#006AFF;" d="M129.54,36.83
		c1.99-4.13,6.25-6.8,10.85-6.8c1.26,0,2.51,0.19,3.7,0.58c1.55,0.5,3.21-0.35,3.71-1.89c0.5-1.54-0.35-3.2-1.9-3.7
		c-1.78-0.57-3.63-0.86-5.51-0.86c-6.85,0-13.2,3.98-16.16,10.13c-0.7,1.46-0.08,3.22,1.38,3.92c0.41,0.2,0.85,0.29,1.27,0.29
		C127.98,38.5,129.03,37.88,129.54,36.83L129.54,36.83z M158.3,42c0-1.62-1.32-2.94-2.95-2.94H141.1c-1.63,0-2.95,1.32-2.95,2.94
		s1.32,2.94,2.95,2.94h10.93c-1.32,5.18-6.04,9.03-11.65,9.03c-4.62,0-8.88-2.69-10.87-6.85c-0.7-1.46-2.46-2.09-3.93-1.39
		c-1.47,0.7-2.1,2.45-1.4,3.91c2.95,6.2,9.31,10.2,16.2,10.2C150.26,59.84,158.3,51.84,158.3,42z M117.64,42
		c0-6.82-3.99-13.14-10.18-16.1c-1.47-0.7-3.23-0.08-3.93,1.38c-0.7,1.46-0.08,3.22,1.38,3.92c4.15,1.98,6.83,6.22,6.83,10.8
		c0,6.6-5.39,11.97-12.02,11.97C93.09,53.97,87.7,48.6,87.7,42c0-4.6,2.7-8.85,6.87-10.82c1.47-0.7,2.1-2.45,1.4-3.91
		c-0.7-1.46-2.46-2.09-3.93-1.39C85.82,28.81,81.8,35.14,81.8,42c0,9.84,8.04,17.84,17.92,17.84C109.6,59.85,117.64,51.84,117.64,42
		L117.64,42z M75.77,56.21V45.8c0-4.74-2-9.31-5.48-12.53L63,26.4c-1.18-1.12-3.05-1.06-4.17,0.11c-1.12,1.18-1.07,3.04,0.11,4.15
		l7.3,6.88c0,0,0.01,0.01,0.02,0.02c2.29,2.12,3.61,5.12,3.61,8.24v10.41c0,1.62,1.32,2.94,2.95,2.94
		C74.45,59.15,75.77,57.84,75.77,56.21L75.77,56.21z M38.72,59.15c-1.63,0-2.95-1.32-2.95-2.94V31.86c0-2.47,1.41-4.62,3.69-5.61
		c2.28-0.99,4.82-0.56,6.64,1.12c0.01,0.01,0.02,0.01,0.02,0.02l12.13,11.44c1.18,1.12,1.23,2.97,0.11,4.15
		c-1.12,1.18-2.99,1.23-4.17,0.11L42.08,31.67c-0.05-0.05-0.12-0.1-0.26-0.04c-0.15,0.06-0.15,0.16-0.15,0.23v24.35
		C41.67,57.83,40.35,59.15,38.72,59.15L38.72,59.15z"/>
</g>
</svg>
