<svg width="48" height="40" viewBox="0 0 48 40" fill="none" xmlns="http://www.w3.org/2000/svg">
<g id="Ordenar">
<g id="Arrows">
<path id="Arrow 1" d="M20.3536 11.6464C20.1583 11.4512 19.8417 11.4512 19.6464 11.6464L16.4645 14.8284C16.2692 15.0237 16.2692 15.3403 16.4645 15.5355C16.6597 15.7308 16.9763 15.7308 17.1716 15.5355L20 12.7071L22.8284 15.5355C23.0237 15.7308 23.3403 15.7308 23.5355 15.5355C23.7308 15.3403 23.7308 15.0237 23.5355 14.8284L20.3536 11.6464ZM20.5 28V12H19.5V28H20.5Z" fill="#FFD100"/>
<path id="Arrow 2" d="M27.6464 28.3536C27.8417 28.5488 28.1583 28.5488 28.3536 28.3536L31.5355 25.1716C31.7308 24.9763 31.7308 24.6597 31.5355 24.4645C31.3403 24.2692 31.0237 24.2692 30.8284 24.4645L28 27.2929L25.1716 24.4645C24.9763 24.2692 24.6597 24.2692 24.4645 24.4645C24.2692 24.6597 24.2692 24.9763 24.4645 25.1716L27.6464 28.3536ZM27.5 12V28H28.5V12H27.5Z" fill="#FFD100"/>
</g>
</g>
</svg>
