<?xml version="1.0" encoding="utf-8"?>
<!-- Generator: Adobe Illustrator 28.0.0, SVG Export Plug-In . SVG Version: 6.00 Build 0)  -->
<svg version="1.1" id="Camada_1" xmlns="http://www.w3.org/2000/svg" xmlns:xlink="http://www.w3.org/1999/xlink" x="0px" y="0px"
	 viewBox="0 0 1486 707.7" style="enable-background:new 0 0 1486 707.7;" xml:space="preserve">
<style type="text/css">
	.st0{fill:#FFD100;}
</style>
<g id="XMLID_00000006693523145113603100000013087464146935795855_">
	<g>
		<path class="st0" d="M1309.3,454.8c34.3,8.7,78.8,14.3,158.8,15.4c-13,53.3-115.8,78.6-229.6,47.9c26.6,21.2,61.7,35.4,107.7,40.5
			c-40.5,50.1-109.3,48.5-218.9-13.5c16.4,22,41.5,41,79.8,56.7c-100.1,70.3-178.8-91.3-287.8-49.8v0c-4.5-42.3,2.6-75.5,19.6-100.8
			c35.5-53,97.5-66.3,168-56.7C1181.1,404.5,1240.6,437.4,1309.3,454.8z"/>
		<path class="st0" d="M1352.6,26c21.2,50.7-46.3,132-156.1,175c34,1.2,70.6-8.2,110.7-31.4c-2.7,64.4-59,104-184,119.3
			c26.3,7.9,57.7,8.3,97.8-1.9c-38.6,116-198,32.9-261,131c-28.7-31.4-42.8-62.3-44.2-92.7c-2.9-63.7,39-111.3,101.4-145.5
			c65.6-36,133-45,198.6-71.8C1248.6,94.6,1287.6,72.7,1352.6,26z"/>
		<path class="st0" d="M1001.9,116.3c0,4.8-1.4,9.6-4.1,13.6h-0.1L895.5,283.2c-32.1-33.3-75.2-55.8-123.4-61.9l68.5-114.1
			c5.8-9.6,16.2-15.5,27.4-15.5h109.3C990.9,91.7,1001.9,102.7,1001.9,116.3z"/>
		<path d="M960,418L960,418L960,418C960,418,960,418,960,418z"/>
		<path class="st0" d="M745.9,251.7c97.2,0,176,78.8,176,176s-78.8,176-176,176s-176-78.8-176-176S648.7,251.7,745.9,251.7z
			 M839,406.6c5.6-5.4,2.5-14.8-5.2-16l-50.1-7.3c-3-0.4-5.7-2.4-7-5.1l-22.4-45.4c-3.4-7-13.3-7-16.8,0l-22.4,45.4
			c-1.4,2.8-4,4.7-7,5.1l-50.2,7.3c-7.7,1.1-10.7,10.5-5.2,16L689,442c2.2,2.2,3.2,5.2,2.7,8.3l-8.6,49.9
			c-1.3,7.6,6.7,13.5,13.6,9.9l44.8-23.6c2.7-1.4,6-1.4,8.7,0l44.8,23.6c6.9,3.6,14.9-2.2,13.6-9.9l-8.6-49.9
			c-0.5-3,0.5-6.1,2.7-8.3L839,406.6z"/>
		<path class="st0" d="M651.2,107.2l68.5,114.1c-48.2,6.1-91.3,28.6-123.4,61.9L494,129.9c-2.7-4-4.1-8.8-4.1-13.6
			c0-13.6,11-24.6,24.6-24.6h109.3C635,91.7,645.5,97.6,651.2,107.2z"/>
		<path class="st0" d="M475.3,182.2c62.3,34.2,104.3,81.8,101.4,145.5c-1.4,30.4-15.4,61.3-44.2,92.7c-62.9-98.1-222.3-15-261-131
			c40.1,10.2,71.5,9.8,97.8,1.9c-125-15.3-181.3-54.9-184-119.3c40,23.2,76.7,32.6,110.7,31.4c-109.8-43-177.3-124.4-156.1-175
			c65,46.7,104.1,68.7,136.8,82.1C342.2,137.2,409.7,146.2,475.3,182.2z"/>
		<path class="st0" d="M550.1,451.7c17,25.3,24,58.5,19.6,100.8v0C460.8,511,382,672.6,282,602.3c38.3-15.6,63.3-34.7,79.8-56.7
			c-109.6,62-178.4,63.7-218.9,13.5c46-5.1,81-19.3,107.7-40.5C136.7,549.3,34,524,20.9,470.7c80-1.1,124.5-6.7,158.8-15.4
			c68.7-17.4,128.2-50.3,202.4-60.3C452.6,385.5,514.6,398.7,550.1,451.7z"/>
	</g>
	<g>
	</g>
</g>
</svg>
